<svg xmlns="http://www.w3.org/2000/svg" version="1.1" xmlns:xlink="http://www.w3.org/1999/xlink" xmlns:svgjs="http://svgjs.dev/svgjs" width="100%" height="100%" viewBox="0 0 1000 600"><rect width="1000" height="600" x="0" y="0" fill="#ffff"/><g><rect width="333.3333333333333" height="333.3333333333333" rx="13.333333333333334" ry="13.333333333333334" y="171.33118008527163" fill="#209cee" transform="matrix(0.8383130913832221,0,0,0.8383130913832221,0,16.651975609423232)" x="149.10893249511722"/><path d="M355.4625189199184 371.9944300784374L355.4625189199184 371.9944300784374Q355.4625189199184 390.1180768457217 360.43547077679517 390.1180768457217L360.43547077679517 390.1180768457217Q363.4192418909212 390.1180768457217 367.7843885208464 386.33310793243214Q372.17716266108755 382.5481390191426 376.5423092910127 378.0724823479535Q380.9350834312539 373.5968256767644 384.6095423032795 369.8118567634749Q388.28400117530515 366.0268878501853 389.6653766911042 366.0268878501853L389.6653766911042 366.0268878501853Q392.45575523301835 366.0268878501853 392.45575523301835 372.7956278776009L392.45575523301835 372.7956278776009Q392.45575523301835 386.7198930768559 378.4486075028155 399.8429604769474Q364.4138322622966 412.9936553873548 348.50038632029094 412.9936553873548L348.50038632029094 412.9936553873548Q338.5544826065374 413.1870479595667 334.9629062654597 404.4291271894004L334.9629062654597 404.4291271894004Q332.20015523386155 397.46699458977287 332.20015523386155 382.1613538747188L332.20015523386155 382.1613538747188Q318.85606775124216 412.9936553873548 292.60993295105925 412.9936553873548L292.60993295105925 412.9936553873548Q274.90069883851476 412.9936553873548 264.4574999390735 404.12522457592456Q254.0143010396323 395.2844212748103 254.0143010396323 376.1938116464667L254.0143010396323 376.1938116464667Q254.0143010396323 371.6076449340137 259.097762937773 352.01974011998243Q264.15359732559773 332.43183530595115 267.1373684397238 319.77843558123135Q270.12113955384984 307.15266336682754 270.12113955384984 299.8037456227763L270.12113955384984 299.8037456227763Q270.12113955384984 283.6969071085588 261.9710240106351 283.6969071085588L261.9710240106351 283.6969071085588Q259.1806454687209 283.6969071085588 256.88756211249444 285.27167519656973Q254.6221062665839 286.87407079489674 252.3290229103574 288.66985896543554Q250.0359395541309 290.4380196256584 247.65997366695643 292.04041522398535Q245.25638026946598 293.6428108223123 242.189726624392 293.6428108223123Q239.095445469002 293.6428108223123 239.095445469002 288.2554463106958L239.095445469002 288.2554463106958Q239.095445469002 277.3149522255669 249.2347417549674 270.35281962593945L249.2347417549674 270.35281962593945Q258.98725289650906 263.1972944541001 272.52473295134024 263.1972944541001Q286.03458549585554 263.1972944541001 292.8033255232711 274.33118111144086L292.8033255232711 274.33118111144086Q297.96966995235977 282.4812966546556 297.96966995235977 292.7311029818849Q297.96966995235977 302.9809093091143 295.78709663739716 312.622910409392Q293.6045233224346 322.26491150966973 291.11804739399616 332.43183530595115Q288.6315714655578 342.5711315919165 286.44899815059523 353.0143304913578Q284.2387973253167 363.457529390799 284.2387973253167 370.1157593769507Q284.2387973253167 376.7739893631023 284.8466025522683 378.9565626780649L284.8466025522683 378.9565626780649Q287.63698109418243 387.71448344823125 298.3840826070995 387.71448344823125L298.3840826070995 387.71448344823125Q312.30834780635445 387.71448344823125 322.6410366645317 370.2262694182146L322.6410366645317 370.2262694182146Q331.39895743469805 355.50080641979616 334.9629062654597 334.42101604870186L334.9629062654597 334.42101604870186L336.1785167193629 325.46970270632363L335.37731892019946 283.8902996807707Q335.37731892019946 274.7455937661806 343.3340418912023 268.7780515379285Q351.2907648622051 262.8105093096763 360.0486856323714 263.00390188188817L360.0486856323714 263.00390188188817Q363.61263446313313 263.00390188188817 364.6072248345085 268.2807563522408Q365.60181520588384 273.5299833122774 365.60181520588384 279.9119381952692Q365.60181520588384 286.2662655679451 364.80061740672033 292.15092526524927Q364.0270471178729 298.00795745223746 362.92194670523355 305.6607778097645Q361.8168462925943 313.31359816729156 360.43547077679517 322.0715189374579L360.43547077679517 322.0715189374579Q355.2691263477065 358.07016487918247 355.4625189199184 371.9944300784374Z " fill="#ffff" transform="matrix(0.8383130913832221,0,0,0.8383130913832221,0,16.651975609423232)"/><path d="M680.1861103152319 370.16179738851486L680.1861103152319 370.16179738851486Q680.1861103152319 387.9807185284187 685.0754484328884 387.9807185284187L685.0754484328884 387.9807185284187Q688.0090513034824 387.9807185284187 692.3008036512031 384.25938896109125Q696.6197189884663 380.5380593937638 700.9114713361871 376.1376550878729Q705.2303866734504 371.73725078198197 708.8430642826078 368.0159212146545Q712.455741891765 364.29459164732697 713.8138913688919 364.29459164732697L713.8138913688919 364.29459164732697Q716.5573533126881 364.29459164732697 716.5573533126881 370.9495240852484L716.5573533126881 370.9495240852484Q716.5573533126881 384.6396708146867 702.7857176146222 397.54209084739153Q688.9869189270137 410.47167386963883 673.3410369505127 410.47167386963883L673.3410369505127 410.47167386963883Q663.5623607151996 410.6618147964366 660.0311720746698 402.05114711145256L660.0311720746698 402.05114711145256Q657.3148731204162 395.2060737467334 657.3148731204162 380.15777754016824L657.3148731204162 380.15777754016824Q644.1951491713711 410.47167386963883 618.3903091059616 410.47167386963883L618.3903091059616 410.47167386963883Q600.9788328091958 410.47167386963883 590.711222762117 401.75235422648467Q580.4436127150382 393.060197572873 580.4436127150382 374.29057179898035L580.4436127150382 374.29057179898035Q580.4436127150382 369.7815155349193 585.4416027908649 350.522955949261Q590.4124298771491 331.2643963636027 593.3460327477429 318.8237471531211Q596.2796356183369 306.4102609321819 596.2796356183369 299.18490571386724L596.2796356183369 299.18490571386724Q596.2796356183369 283.3488828105685 588.2665537032887 283.3488828105685L588.2665537032887 283.3488828105685Q585.5230917594926 283.3488828105685 583.268563627462 284.89717321449314Q581.041198484974 286.4726266079602 578.7866703529435 288.2382209282251Q576.532142220913 289.9766522589474 574.1961251202548 291.5521056524145Q571.8329450300541 293.12755904588164 568.8178531908326 293.12755904588164Q565.7755983620685 293.12755904588164 565.7755983620685 287.830776085087L565.7755983620685 287.830776085087Q565.7755983620685 277.0742322262426 575.7444155241793 270.22915886152344L575.7444155241793 270.22915886152344Q585.3329508326948 263.1939445700065 598.6428157085376 263.1939445700065Q611.9255175948379 263.1939445700065 618.5804500327594 274.1406293556487L618.5804500327594 274.1406293556487Q623.6599290772136 282.15371127069693 623.6599290772136 292.2311803909779Q623.6599290772136 302.3086495112589 621.5140529033532 311.78853286160415Q619.3681767294928 321.26841621194933 616.9235076706645 331.2643963636027Q614.4788386118363 341.2332135257136 612.3329624379759 351.50082357279234Q610.159923274573 361.7684336198711 610.159923274573 368.3147140996224Q610.159923274573 374.86099457937365 610.7575090445088 377.006870753234L610.7575090445088 377.006870753234Q613.500970988305 385.61753843821805 624.0673739203517 385.61753843821805L624.0673739203517 385.61753843821805Q637.75752064979 385.61753843821805 647.9164787386986 368.4233660577925L647.9164787386986 368.4233660577925Q656.5271464236827 353.9454926316206 660.0311720746698 333.22013161066536L660.0311720746698 333.22013161066536L661.2263436145414 324.41932299888356L660.4386169178078 283.5390237373663Q660.4386169178078 274.5480741987867 668.2615579060583 268.6808684575989Q676.0844988943088 262.81366271641105 684.6951665792928 263.00380364320876L684.6951665792928 263.00380364320876Q688.19919223028 263.00380364320876 689.1770598538113 268.1919346458332Q690.1549274773427 273.3529026589151 690.1549274773427 279.62755324324104Q690.1549274773427 285.8750408380244 689.3672007806091 291.66075761058465Q688.6066370734181 297.41931139360236 687.5201174917166 304.94345949688494Q686.4335979100152 312.4676076001675 685.0754484328884 321.07827528515156L685.0754484328884 321.07827528515156Q679.9959693884341 356.47165065907654 680.1861103152319 370.16179738851486ZM715.4979967205292 399.2261961990288Q713.2434685884987 394.0380651964043 712.2656009649672 387.08433987351503Q711.287733341436 380.15777754016824 711.287733341436 367.63563936105896Q711.287733341436 355.1135011819497 715.9869305322948 333.7905543910586L715.9869305322948 333.7905543910586L707.186121920513 333.7905543910586Q704.8229418303123 333.7905543910586 704.8229418303123 331.834819143996L704.8229418303123 331.834819143996Q704.8229418303123 327.13562195313716 705.719320485216 324.12053011391566Q706.5885361505772 321.07827528515156 709.9024208747667 317.1668047910263L709.9024208747667 317.1668047910263L714.6016180656254 317.1668047910263Q717.3450800094216 317.1668047910263 720.4688238068134 316.97666386422856L720.4688238068134 316.97666386422856Q729.8672181885308 286.8529084615557 739.645894423844 286.8529084615557L739.645894423844 286.8529084615557Q747.4688354120944 287.04304938835344 750.5925792094862 296.82172562366657L750.5925792094862 296.82172562366657Q751.3803059062197 299.5651875674628 752.3581735297511 302.68893136485445L752.3581735297511 302.68893136485445L744.3450916147028 316.78652293743085Q758.0352383441411 317.1668047910263 761.6479159532985 317.1668047910263Q765.2605935624558 317.1668047910263 765.5593864474238 317.84587952958975Q765.8581793323916 318.5521172576957 765.8581793323916 319.9102667348225L765.8581793323916 319.9102667348225Q765.8581793323916 323.44145537535223 764.1740739807544 328.7110753466043Q762.5171316186596 333.9806953178564 760.3712554447993 333.7905543910586L760.3712554447993 333.7905543910586L740.8139029741731 332.8126867675273Q736.7122915532501 356.6889545754168 736.7122915532501 372.33483655191776Q736.7122915532501 387.9807185284187 741.1941848277686 387.9807185284187L741.1941848277686 387.9807185284187Q744.9155143950961 387.9807185284187 754.6941906304091 381.81471990226294Q764.4728668657223 375.6487212761072 768.7917822029856 369.9716564617171Q773.0835345507063 364.29459164732697 775.8269964945025 364.29459164732697L775.8269964945025 364.29459164732697Q778.5704584382986 364.29459164732697 778.5704584382986 370.9495240852484Q778.5704584382986 377.6044565231698 773.8712612474399 384.55818184605914Q769.172064056581 391.48474417940594 762.028197806894 397.27046095196613Q754.8843315572069 403.0290147349839 746.1921749035953 406.75034430231136Q737.5000182499837 410.47167386963883 731.0352267388599 410.47167386963883Q724.5704352277363 410.47167386963883 721.1478985453767 407.4294190408748Q717.7253618630172 404.3871642121107 715.4979967205292 399.2261961990288ZM777.4839388565972 399.2261961990288Q775.2294107245666 394.0380651964043 774.2515431010354 387.08433987351503Q773.2736754775041 380.15777754016824 773.2736754775041 367.63563936105896Q773.2736754775041 355.1135011819497 777.9728726683628 333.7905543910586L777.9728726683628 333.7905543910586L769.172064056581 333.7905543910586Q766.8360469559229 333.7905543910586 766.8360469559229 331.834819143996L766.8360469559229 331.834819143996Q766.8360469559229 327.13562195313716 767.7052626212841 324.12053011391566Q768.5744782866452 321.07827528515156 771.9155260003772 317.1668047910263L771.9155260003772 317.1668047910263L776.6147231912361 317.1668047910263Q779.3310221454897 317.1668047910263 782.4819289324239 316.97666386422856L782.4819289324239 316.97666386422856Q791.853160324599 286.8529084615557 801.631836559912 286.8529084615557L801.631836559912 286.8529084615557Q809.4547775481625 287.04304938835344 812.5785213455542 296.82172562366657L812.5785213455542 296.82172562366657Q813.3662480422878 299.5651875674628 814.3441156658191 302.68893136485445L814.3441156658191 302.68893136485445L806.3310337507709 316.78652293743085Q820.0211804802092 317.1668047910263 823.6338580893666 317.1668047910263Q827.2465356985239 317.1668047910263 827.5453285834918 317.84587952958975Q827.8441214684597 318.5521172576957 827.8441214684597 319.9102667348225L827.8441214684597 319.9102667348225Q827.8441214684597 323.44145537535223 826.187179106365 328.7110753466043Q824.5302367442703 333.9806953178564 822.3571975808673 333.7905543910586L822.3571975808673 333.7905543910586L802.7998451102411 332.8126867675273Q798.6982336893182 356.6889545754168 798.6982336893182 372.33483655191776Q798.6982336893182 387.9807185284187 803.2072899533791 387.9807185284187L803.2072899533791 387.9807185284187Q806.9286195207067 387.9807185284187 816.7072957560197 381.81471990226294Q826.4859719913329 375.6487212761072 830.7777243390536 369.9716564617171Q835.0694766867744 364.29459164732697 837.8129386305706 364.29459164732697L837.8129386305706 364.29459164732697Q840.5564005743668 364.29459164732697 840.5564005743668 370.9495240852484Q840.5564005743668 377.6044565231698 835.8572033835079 384.55818184605914Q831.158006192649 391.48474417940594 824.0413029325045 397.27046095196613Q816.8974366828176 403.0290147349839 808.1781170396633 406.75034430231136Q799.4859603860517 410.47167386963883 793.021168874928 410.47167386963883Q786.583540353347 410.47167386963883 783.1610036709873 407.4294190408748Q779.7384669886277 404.3871642121107 777.4839388565972 399.2261961990288ZM950.865301106607 363.7241688669337L950.865301106607 363.7241688669337Q954.3693267575943 363.7241688669337 954.3693267575943 372.7151184055133L954.3693267575943 372.7151184055133Q954.3693267575943 377.6044565231698 950.2677153366712 384.55818184605914Q946.1661039157482 391.48474417940594 939.619823435997 397.27046095196613Q933.0735429562457 403.0290147349839 925.0332980516548 406.75034430231136Q917.0202161366067 410.47167386963883 909.387416075154 410.47167386963883L909.387416075154 410.47167386963883Q899.0383170594475 410.47167386963883 895.5071284189178 392.27247087613944L895.5071284189178 392.27247087613944Q890.4276493744635 400.6929976343257 882.2244265326176 406.07126956374793Q873.994040701229 411.44954149317016 860.2224050031631 411.44954149317016Q846.4236063155545 411.44954149317016 838.0030795573682 402.8388738081861Q829.6097157887245 394.2282061232021 829.7998567155223 381.8962088708906L829.7998567155223 381.8962088708906Q829.7998567155223 348.648709670826 851.9105302031469 329.49880204333783L851.9105302031469 329.49880204333783Q861.281761595322 321.48572012828964 869.4034954685403 318.9323991112912Q877.5252293417587 316.37907809429277 886.5161788803382 316.37907809429277Q895.5071284189178 316.37907809429277 901.184193233308 319.529984881227L901.184193233308 319.529984881227Q903.927655177104 313.8529200668369 907.4316808280913 313.8529200668369L907.4316808280913 313.8529200668369Q914.2767541928106 313.8529200668369 920.4427528189663 319.8016147766524Q926.6087514451219 325.77747247601036 926.6087514451219 331.04709244726246L926.6087514451219 331.04709244726246Q923.8652895013258 337.5118839583861 918.5956695300738 346.50283349696565L918.5956695300738 346.50283349696565Q917.0202161366067 355.4937830355452 917.0202161366067 371.73725078198197Q917.0202161366067 387.9807185284187 921.1218275575296 387.9807185284187L921.1218275575296 387.9807185284187Q926.2284695915265 387.9807185284187 945.7858220621526 367.63563936105896L945.7858220621526 367.63563936105896Q949.2898477131398 363.7241688669337 950.865301106607 363.7241688669337ZM858.5382996515258 375.45858034930944L858.5382996515258 375.45858034930944Q858.5382996515258 390.5068765558746 869.7022883535083 390.5068765558746L869.7022883535083 390.5068765558746Q881.6268407626817 390.31673562907685 889.4497817509323 377.79459744996757L889.4497817509323 377.79459744996757Q892.1932436947284 373.50284510224685 893.9588380149933 367.2281945179209L893.9588380149933 367.2281945179209Q893.9588380149933 345.33482494663656 897.8703085091186 329.6889429701356L897.8703085091186 329.6889429701356Q882.0071226162772 332.8126867675273 870.2727111339016 344.9545430930411Q858.5382996515258 357.0692364290123 858.5382996515258 375.45858034930944ZM973.1661155210294 377.006870753234L973.1661155210294 377.006870753234L974.3341240713585 400.8831385611235Q974.3341240713585 405.5823357519823 969.444785953702 409.27650232976725Q964.5554478360455 412.9978318970947 956.1349210778591 412.9978318970947L956.1349210778591 412.9978318970947Q951.2455829602025 412.9978318970947 949.39849967131 407.9183528526404Q947.5242533928749 402.8388738081861 947.5242533928749 393.060197572873L947.5242533928749 393.060197572873Q947.5242533928749 372.5249774787155 949.5886405981078 360.8720549649674Q951.6530278033406 349.2462954407618 957.7103744713261 337.3217430315883L957.7103744713261 337.3217430315883Q948.7194249327465 328.7110753466043 948.7194249327465 322.4635877518209L948.7194249327465 322.4635877518209Q948.7194249327465 309.34386380277584 962.7898535157805 309.34386380277584L962.7898535157805 309.34386380277584Q970.015208734095 309.34386380277584 975.5021326216875 316.97666386422856L975.5021326216875 316.97666386422856Q979.4136031158127 322.24628383548065 981.1791974360776 329.3086611165401L981.1791974360776 329.3086611165401Q983.9226593798738 330.2865287400714 988.0242708007968 330.2865287400714L988.0242708007968 330.2865287400714Q993.701335615187 330.2865287400714 1001.1168317602994 326.5651991727439L1001.1168317602994 326.5651991727439L1006.1963108047536 324.01187815574553Q1008.5594908949543 322.84386960541644 1010.3250852152191 322.84386960541644L1010.3250852152191 322.84386960541644Q1015.9749870400667 322.84386960541644 1021.6520518544569 339.4676192054487L1021.6520518544569 339.4676192054487Q1019.886457534192 347.10041926690144 1017.8492333185018 354.13563355841836Q1015.7848461132689 361.1708478499353 1013.0413841694728 371.1396650120462Q1010.3250852152191 381.13564516369956 1010.2164332570491 384.55818184605914Q1010.1077812988789 387.9807185284187 1012.2808204622818 387.9807185284187L1012.2808204622818 387.9807185284187Q1015.2144233328758 387.9807185284187 1019.5061756805965 384.25938896109125Q1023.7979280283173 380.5380593937638 1028.1168433655803 376.1376550878729Q1032.408595713301 371.73725078198197 1036.0212733224585 368.0159212146545Q1039.6611139211582 364.29459164732697 1041.0192633982851 364.29459164732697L1041.0192633982851 364.29459164732697Q1043.7627253420815 364.29459164732697 1043.7627253420815 370.9495240852484L1043.7627253420815 370.9495240852484Q1043.7627253420815 384.44952988788896 1031.9196619015356 397.54209084739153Q1020.1037614505323 410.6618147964366 1004.8381613276267 410.47167386963883L1004.8381613276267 410.47167386963883Q995.8472117890474 410.47167386963883 991.3381555249862 403.21915566178166Q986.8562622504678 395.99380044346697 986.6389583341274 385.61753843821805L986.6389583341274 385.61753843821805Q986.6389583341274 365.0823183440606 995.8472117890474 346.6929744237634L995.8472117890474 346.6929744237634Q991.528296451784 348.45856874402824 986.1500245223617 348.45856874402824Q980.7717525929395 348.45856874402824 978.4357354922814 348.07828689043276L978.4357354922814 348.07828689043276Q976.6701411720167 355.4937830355452 974.9045468517518 363.04509412837035Q973.1661155210294 370.5692422316529 973.1661155210294 377.006870753234Z " fill="#209cee" transform="matrix(0.8383130913832221,0,0,0.8383130913832221,0,16.651975609423232)"/></g></svg>